<svg width="12" height="13" viewBox="0 0 12 13" fill="none" xmlns="http://www.w3.org/2000/svg">
<path d="M7.3036 6.57159L11.9529 1.02963C12.0308 0.937529 11.9653 0.797607 11.8449 0.797607H10.4315C10.3482 0.797607 10.2685 0.834802 10.2136 0.898563L6.37905 5.46992L2.5445 0.898563C2.49136 0.834802 2.41166 0.797607 2.32664 0.797607H0.913258C0.792819 0.797607 0.727286 0.937529 0.805217 1.02963L5.45451 6.57159L0.805217 12.1135C0.78776 12.1341 0.77656 12.1592 0.772948 12.1859C0.769335 12.2126 0.773462 12.2398 0.784837 12.2642C0.796213 12.2886 0.81436 12.3093 0.837123 12.3237C0.859886 12.3381 0.88631 12.3457 0.913258 12.3456H2.32664C2.40989 12.3456 2.48959 12.3084 2.5445 12.2446L6.37905 7.67325L10.2136 12.2446C10.2667 12.3084 10.3465 12.3456 10.4315 12.3456H11.8449C11.9653 12.3456 12.0308 12.2056 11.9529 12.1135L7.3036 6.57159Z" fill="#1B4778"/>
</svg>
